<svg xmlns="http://www.w3.org/2000/svg" viewBox="0 0 800 600">
<defs>
<pattern id="gHatch" width="16" height="16" patternTransform="rotate(45)" patternUnits="userSpaceOnUse"><line x1="0" y1="0" x2="0" y2="16" stroke="#3d2c20" stroke-opacity=".08" stroke-width="2"/></pattern>
</defs>
<rect width="800" height="600" fill="#cf9f5e"/>
<rect width="800" height="600" fill="url(#gHatch)"/>
<line x1="470" y1="120" x2="470" y2="500" stroke="#3d2c20" stroke-width="3" stroke-dasharray="2 10" opacity=".6"/>
<path d="M300 150c25-35 55-55 90-55M300 150c-8-40 4-75 30-95" fill="none" stroke="#3d2c20" stroke-width="10" stroke-linecap="round" opacity=".55"/>
<rect x="270" y="160" width="200" height="120" rx="10" fill="#eee6d9" stroke="#3d2c20" stroke-width="10"/>
<path d="M270 210h200" stroke="#3d2c20" stroke-width="4" opacity=".4"/>
<path d="M290 300l190 0 -25 90 -140 0z" fill="#4a3122" stroke="#3d2c20" stroke-width="10"/>
<circle cx="330" cy="330" r="7" fill="#cf9f5e"/><circle cx="365" cy="345" r="7" fill="#cf9f5e"/><circle cx="400" cy="325" r="7" fill="#cf9f5e"/><circle cx="435" cy="350" r="7" fill="#cf9f5e"/><circle cx="345" cy="365" r="7" fill="#cf9f5e"/><circle cx="415" cy="368" r="7" fill="#cf9f5e"/>
<rect x="255" y="400" width="230" height="110" rx="14" fill="#e3c393" stroke="#3d2c20" stroke-width="10"/>
<path d="M270 470c20-14 40 14 60 0s40 14 60 0 40 14 60 0" fill="none" stroke="#3d2c20" stroke-width="5" opacity=".55"/>
<circle cx="600" cy="220" r="30" fill="#3d2c20"/><text x="600" y="230" font-size="30" font-family="Georgia" fill="#eee6d9" text-anchor="middle">1</text>
<line x1="572" y1="220" x2="480" y2="215" stroke="#3d2c20" stroke-width="4"/>
<circle cx="600" cy="345" r="30" fill="#3d2c20"/><text x="600" y="355" font-size="30" font-family="Georgia" fill="#eee6d9" text-anchor="middle">2</text>
<line x1="572" y1="345" x2="490" y2="340" stroke="#3d2c20" stroke-width="4"/>
<circle cx="600" cy="455" r="30" fill="#3d2c20"/><text x="600" y="465" font-size="30" font-family="Georgia" fill="#eee6d9" text-anchor="middle">3</text>
<line x1="572" y1="455" x2="490" y2="450" stroke="#3d2c20" stroke-width="4"/>
<text x="55" y="555" font-size="46" font-family="Georgia" fill="#2c2016">A Beginner's Guide</text>
</svg>
